<?xml version="1.0" encoding="UTF-8"?>
<svg width="261px" height="49px" viewBox="0 0 261 49" version="1.1" xmlns="http://www.w3.org/2000/svg" xmlns:xlink="http://www.w3.org/1999/xlink">
    <!-- Generator: Sketch 53.2 (72643) - https://sketchapp.com -->
    <title>Group 25</title>
    <desc>Created with Sketch.</desc>
    <defs>
        <polygon id="path-1" points="0 48.0082256 260.861904 48.0082256 260.861904 0 0 0"></polygon>
    </defs>
    <g id="Page-1" stroke="none" stroke-width="1" fill="none" fill-rule="evenodd">
        <g id="Apple-TV-Copy-14" transform="translate(-375.000000, -40.000000)">
            <g id="Group-25" transform="translate(375.000000, 40.000000)">
                <polygon id="Fill-1" fill="#F68C1F" points="15.9888899 0.374189126 20.3495573 13.4670696 30.5248217 13.4670696 34.8851156 0.374189126"></polygon>
                <polygon id="Fill-2" fill="#F68C1F" points="19.6226674 48.3821156 28.3440023 48.3821156 23.9833348 35.2892351"></polygon>
                <polygon id="Fill-3" fill="#F68C1F" points="34.8850035 35.2891977 28.3438155 35.2891977 32.704483 48.3820782 47.9670059 48.3820782 47.9670059 33.1068017 34.8850035 28.7423835"></polygon>
                <polygon id="Fill-4" fill="#F68C1F" points="0 0.374189126 0 48.3820408 15.2621493 48.3820408 19.6228168 35.2891603 13.0820024 35.2891603 13.0820024 13.4670696 21.075999 13.4670696 16.7153316 0.374189126"></polygon>
                <polygon id="Fill-5" fill="#F68C1F" points="0 48.3821156 15.2621493 48.3821156 19.6228168 35.2892351 13.0820024 35.2892351 13.0820024 21.4680168 0 17.1039726"></polygon>
                <polygon id="Fill-6" fill="#F68C1F" points="0 31.6519582 13.0820024 27.2875401 13.0820024 21.467942 0 17.1038978"></polygon>
                <polygon id="Fill-7" fill="#F68C1F" points="0 17.10401 13.0820024 21.4680542 13.0820024 13.4671818 0 0.374301293"></polygon>
                <polygon id="Fill-8" fill="#F68C1F" points="34.8850035 35.2891977 47.9670059 48.3820782 47.9670059 33.1068017 34.8850035 28.7423835"></polygon>
                <polygon id="Fill-9" fill="#F68C1F" points="31.251226 0.374189126 26.8905585 13.4670696 34.8849288 13.4670696 34.8849288 20.0138838 47.9669312 15.6494656 47.9669312 0.374189126"></polygon>
                <polygon id="Fill-10" fill="#F68C1F" points="35.6118935 0.374189126 31.251226 13.4670696 34.8849288 13.4670696 34.8849288 20.0138838 47.9669312 15.6494656 47.9669312 0.374189126"></polygon>
                <polygon id="Fill-11" fill="#F68C1F" points="13.0820024 35.2891977 0 48.3820782 15.2625229 48.3820782 19.6228168 35.2891977"></polygon>
                <polygon id="Fill-12" fill="#F68C1F" points="34.8850035 13.467107 34.8850035 20.0139212 47.9670059 15.649503 47.9670059 0.374226515"></polygon>
                <g id="Group-24" transform="translate(0.000000, 0.150304)">
                    <path d="M64.9800344,35.2763733 C58.6577576,35.2763733 53.8219108,30.4042125 53.8219108,24.1015485 C53.8219108,17.7988846 58.6263779,13.0538464 65.0121613,13.0538464 C70.4528158,13.0538464 74.6771307,16.5067207 75.6992147,21.6832279 L70.0564594,21.6832279 C69.1367333,19.6152422 67.2438607,18.4008475 64.9796608,18.4008475 C61.8984661,18.4008475 59.5808459,20.8759994 59.5808459,24.1337031 C59.5808459,27.3914068 61.9369437,29.93012 64.9796608,29.93012 C67.2759876,29.93012 69.0907844,28.65179 70.0493616,26.4035893 L75.7701927,26.4035893 C74.7794885,31.6896464 70.4778449,35.2767472 64.9800344,35.2767472 L64.9800344,35.2763733 Z" id="Fill-13" fill="#000000"></path>
                    <mask id="mask-2" fill="white">
                        <use xlink:href="#path-1"></use>
                    </mask>
                    <g id="Clip-16"></g>
                    <path d="M79.5346446,10.8454276 L85.1949575,10.8454276 L85.1949575,5.55862284 L79.5346446,5.55862284 L79.5346446,10.8454276 Z M79.5245582,34.6820377 L85.2061646,34.6820377 L85.2061646,13.6496027 L79.5245582,13.6496027 L79.5245582,34.6820377 Z" id="Fill-15" fill="#000000" mask="url(#mask-2)"></path>
                    <path d="M110.398181,21.9353793 L110.398181,34.6820377 L104.716575,34.6820377 L104.716575,22.8558966 C104.716575,19.6763359 103.510321,18.1430129 101.051118,18.1430129 C98.1223398,18.1430129 96.3355607,20.2431531 96.3355607,23.6272317 L96.3355607,34.6820377 L90.6539543,34.6820377 L90.6539543,13.6496027 L94.5525173,13.6496027 L95.6601485,16.2496339 C97.2504305,14.3536376 99.7619329,13.1504596 102.622348,13.1504596 C107.412246,13.1504596 110.398181,16.60969 110.398181,21.9353793" id="Fill-17" fill="#000000" mask="url(#mask-2)"></path>
                    <path d="M120.132858,21.8747718 L130.316341,21.8747718 C129.512795,19.3035301 127.668113,17.9092943 125.118506,17.9092943 C122.588699,17.9092943 120.792954,19.3857859 120.132858,21.8747718 L120.132858,21.8747718 Z M135.9972,24.0915657 C135.9972,24.6471662 135.957976,25.2027668 135.887371,25.7587412 L119.983057,25.7587412 C120.476915,28.6290949 122.362316,30.2099019 125.118506,30.2099019 C127.092443,30.2099019 128.712984,29.2751768 129.575928,27.7702695 L135.547797,27.7702695 C134.019528,32.3552828 129.99694,35.2768593 125.11888,35.2768593 C118.91353,35.2768593 114.218892,30.4682599 114.218892,24.1659698 C114.218892,17.8311513 118.881403,13.0543325 125.11888,13.0543325 C131.571532,13.0543325 135.997574,18.0330519 135.997574,24.0915657 L135.9972,24.0915657 Z" id="Fill-18" fill="#000000" mask="url(#mask-2)"></path>
                    <path d="M171.3464,21.4928431 L171.3464,34.6818134 L165.664794,34.6818134 L165.664794,22.4309332 C165.664794,19.6230192 164.565008,18.1431625 162.505897,18.1431625 C159.969366,18.1431625 158.465752,20.0126126 158.465752,23.3054619 L158.465752,34.6818134 L152.925354,34.6818134 L152.925354,22.4309332 C152.925354,19.6230192 151.857321,18.1431625 149.822866,18.1431625 C147.254581,18.1431625 145.719214,20.0126126 145.719214,23.3054619 L145.719214,34.6818134 L140.037607,34.6818134 L140.037607,13.6493784 L144.006775,13.6493784 L145.072193,16.2572613 C146.563853,14.3736034 148.865409,13.1506091 151.340302,13.1506091 C154.01356,13.1506091 156.222471,14.4016451 157.440679,16.5156193 C158.877051,14.4730581 161.271252,13.1506091 163.945631,13.1506091 C168.293597,13.1506091 171.3464,16.5634772 171.3464,21.4928431" id="Fill-19" fill="#000000" mask="url(#mask-2)"></path>
                    <path d="M192.367672,24.1341517 C192.367672,20.8304596 189.947694,18.3698894 186.647214,18.3698894 C183.346361,18.3698894 180.919285,20.8375635 180.919285,24.1341517 C180.919285,27.43074 183.346361,29.898788 186.647214,29.898788 C189.947694,29.898788 192.367672,27.4378439 192.367672,24.1341517 L192.367672,24.1341517 Z M197.936087,13.6181212 L197.936087,34.6505562 L193.482027,34.6505562 L192.993773,32.7687677 C191.189436,34.3499486 188.834832,35.2771958 186.183989,35.2771958 C179.862086,35.2771958 175.16035,30.500377 175.16035,24.1341517 C175.16035,17.7926032 179.862086,13.054669 186.183989,13.054669 C188.881155,13.054669 191.271247,14.006219 193.088286,15.6274061 L193.695335,13.6177473 L197.936087,13.6181212 Z" id="Fill-20" fill="#000000" mask="url(#mask-2)"></path>
                    <path d="M223.136023,21.9353793 L223.136023,34.6820377 L217.454416,34.6820377 L217.454416,22.8558966 C217.454416,19.6763359 216.248163,18.1430129 213.78896,18.1430129 C210.860182,18.1430129 209.073402,20.2431531 209.073402,23.6272317 L209.073402,34.6820377 L203.391796,34.6820377 L203.391796,13.6496027 L207.290359,13.6496027 L208.39799,16.2496339 C209.988272,14.3536376 212.499775,13.1504596 215.359817,13.1504596 C220.150088,13.1504596 223.136023,16.60969 223.136023,21.9353793" id="Fill-21" fill="#000000" mask="url(#mask-2)"></path>
                    <path d="M228.346858,10.8454276 L234.007171,10.8454276 L234.007171,5.55862284 L228.346858,5.55862284 L228.346858,10.8454276 Z M228.336771,34.6820377 L234.018378,34.6820377 L234.018378,13.6496027 L228.336771,13.6496027 L228.336771,34.6820377 Z" id="Fill-22" fill="#000000" mask="url(#mask-2)"></path>
                    <path d="M255.293564,24.1341517 C255.293564,20.8304596 252.873586,18.3698894 249.573106,18.3698894 C246.272253,18.3698894 243.845177,20.8375635 243.845177,24.1341517 C243.845177,27.43074 246.272253,29.898788 249.573106,29.898788 C252.873586,29.898788 255.293564,27.4378439 255.293564,24.1341517 L255.293564,24.1341517 Z M260.861979,13.6181212 L260.861979,34.6505562 L256.407919,34.6505562 L255.919665,32.7687677 C254.115328,34.3499486 251.760725,35.2771958 249.109881,35.2771958 C242.787978,35.2771958 238.086242,30.500377 238.086242,24.1341517 C238.086242,17.7926032 242.787978,13.054669 249.109881,13.054669 C251.807047,13.054669 254.19714,14.006219 256.014178,15.6274061 L256.621227,13.6177473 L260.861979,13.6181212 Z" id="Fill-23" fill="#000000" mask="url(#mask-2)"></path>
                </g>
            </g>
        </g>
    </g>
</svg>